<svg xmlns="http://www.w3.org/2000/svg" width="15.101" height="10.296" viewBox="0 0 15.101 10.296"><path d="M11.765,1.328A10.471,10.471,0,0,1,15.019,5l.082.15-.082.149a10.483,10.483,0,0,1-3.254,3.67A7.494,7.494,0,0,1,7.551,10.3,7.5,7.5,0,0,1,3.338,8.968,10.477,10.477,0,0,1,.082,5.3L0,5.148.082,5a10.471,10.471,0,0,1,3.254-3.67A7.5,7.5,0,0,1,7.551,0a7.5,7.5,0,0,1,4.214,1.328Zm-4.294,1.4.5.048a1.7,1.7,0,0,0-.284.943A1.637,1.637,0,0,0,9.3,5.379a1.555,1.555,0,0,0,.785-.211c0,.058.006.116.006.175A2.619,2.619,0,1,1,7.471,2.725ZM13.4,5.148a8.4,8.4,0,0,0-2.555-2.84,5.856,5.856,0,0,0-3.29-1.042A5.855,5.855,0,0,0,4.262,2.308a8.42,8.42,0,0,0-2.556,2.84A8.391,8.391,0,0,0,4.262,7.987,5.855,5.855,0,0,0,7.551,9.029a5.859,5.859,0,0,0,3.29-1.042A8.388,8.388,0,0,0,13.4,5.148Z"/></svg>